# xmcd
#
# Track frame offsets:
#	150
#	17004
#	31543
#	51179
#	67830
#	85073
#	98874
#	113327
#	128449
#	144712
#
# Disc length: 2125 seconds
#
# Revision: 1
# Processed by: cddbd v1.5.2PL0 Copyright (c) Steve Scherf et al.
# Submitted via: audiograbber 1.83.01
#
DISCID=6d084b0a
DTITLE=Various Artist - CDX Volume 588 (February 3, 2014)
DYEAR=2014
DGENRE=Country
TTITLE0=Gloriana - Best Night Ever
TTITLE1=Easton Corbin - Clockwork
TTITLE2=JJ Lawhorn - Good Ol' Boys Like Us
TTITLE3=Swon Brothers - Later On
TTITLE4=Bobby Dean - Country Country
TTITLE5=Erica Nicole - I Listen To My Bad Girl 
TTITLE6=Levi Riggs - I'm Good
TTITLE7=Eileen Carey - Let It Go
TTITLE8=Madeline Smith - State Of Mind
TTITLE9=Homer Hart - The Good Drugs
EXTD=
EXTT0=
EXTT1=
EXTT2=
EXTT3=
EXTT4=
EXTT5=
EXTT6=
EXTT7=
EXTT8=
EXTT9=
PLAYORDER=
